<mxfile host="app.diagrams.net" agent="Mozilla/5.0 (X11; Ubuntu; Linux x86_64; rv:140.0) Gecko/20100101 Firefox/140.0" version="28.0.7">
  <diagram name="Page-1" id="LTYwHRr0Uk3UK3viazqC">
    <mxGraphModel dx="1360" dy="795" grid="1" gridSize="10" guides="1" tooltips="1" connect="1" arrows="1" fold="1" page="1" pageScale="1" pageWidth="850" pageHeight="1100" math="0" shadow="0">
      <root>
        <mxCell id="0" />
        <mxCell id="1" parent="0" />
        <mxCell id="yGFEi1pNEFOO4x7r2IIJ-5" style="edgeStyle=orthogonalEdgeStyle;rounded=0;orthogonalLoop=1;jettySize=auto;html=1;entryX=0.5;entryY=0;entryDx=0;entryDy=0;" edge="1" parent="1" source="yGFEi1pNEFOO4x7r2IIJ-1" target="yGFEi1pNEFOO4x7r2IIJ-3">
          <mxGeometry relative="1" as="geometry" />
        </mxCell>
        <mxCell id="yGFEi1pNEFOO4x7r2IIJ-1" value="" style="dashed=0;outlineConnect=0;html=1;align=center;labelPosition=center;verticalLabelPosition=bottom;verticalAlign=top;shape=mxgraph.webicons.github;gradientColor=#DFDEDE" vertex="1" parent="1">
          <mxGeometry x="100" y="180" width="62.4" height="62.4" as="geometry" />
        </mxCell>
        <mxCell id="yGFEi1pNEFOO4x7r2IIJ-2" value="&lt;div&gt;Scheduled CI/CD&amp;nbsp;&lt;/div&gt;&lt;div&gt;health checker&lt;/div&gt;&lt;div&gt;&amp;nbsp;pings application&amp;nbsp;&lt;/div&gt;&lt;div&gt;HTTP endpoint&lt;/div&gt;" style="text;html=1;align=center;verticalAlign=middle;resizable=0;points=[];autosize=1;strokeColor=none;fillColor=none;" vertex="1" parent="1">
          <mxGeometry x="71.2" y="110" width="120" height="70" as="geometry" />
        </mxCell>
        <mxCell id="yGFEi1pNEFOO4x7r2IIJ-7" style="edgeStyle=orthogonalEdgeStyle;rounded=0;orthogonalLoop=1;jettySize=auto;html=1;" edge="1" parent="1" source="yGFEi1pNEFOO4x7r2IIJ-3" target="yGFEi1pNEFOO4x7r2IIJ-11">
          <mxGeometry relative="1" as="geometry">
            <mxPoint x="320" y="330.5999999999999" as="targetPoint" />
          </mxGeometry>
        </mxCell>
        <mxCell id="yGFEi1pNEFOO4x7r2IIJ-3" value="" style="image;html=1;image=img/lib/clip_art/computers/Server_Rack_128x128.png" vertex="1" parent="1">
          <mxGeometry x="96.2" y="300" width="70" height="61.2" as="geometry" />
        </mxCell>
        <mxCell id="yGFEi1pNEFOO4x7r2IIJ-4" value="&lt;div&gt;Homelab servers&lt;/div&gt;&lt;div&gt;return 200 OK or&amp;nbsp;&lt;/div&gt;&lt;div&gt;other&lt;/div&gt;" style="text;html=1;align=center;verticalAlign=middle;resizable=0;points=[];autosize=1;strokeColor=none;fillColor=none;" vertex="1" parent="1">
          <mxGeometry x="71.19999999999999" y="361.2" width="120" height="60" as="geometry" />
        </mxCell>
        <mxCell id="yGFEi1pNEFOO4x7r2IIJ-8" value="NOK reponse code" style="text;html=1;align=center;verticalAlign=middle;resizable=0;points=[];autosize=1;strokeColor=none;fillColor=none;" vertex="1" parent="1">
          <mxGeometry x="166.2" y="300" width="130" height="30" as="geometry" />
        </mxCell>
        <mxCell id="yGFEi1pNEFOO4x7r2IIJ-15" style="edgeStyle=orthogonalEdgeStyle;rounded=0;orthogonalLoop=1;jettySize=auto;html=1;" edge="1" parent="1" source="yGFEi1pNEFOO4x7r2IIJ-11">
          <mxGeometry relative="1" as="geometry">
            <mxPoint x="450" y="331.20000000000005" as="targetPoint" />
          </mxGeometry>
        </mxCell>
        <mxCell id="yGFEi1pNEFOO4x7r2IIJ-11" value="" style="dashed=0;outlineConnect=0;html=1;align=center;labelPosition=center;verticalLabelPosition=bottom;verticalAlign=top;shape=mxgraph.webicons.github;gradientColor=#DFDEDE" vertex="1" parent="1">
          <mxGeometry x="310" y="300" width="62.4" height="62.4" as="geometry" />
        </mxCell>
        <mxCell id="yGFEi1pNEFOO4x7r2IIJ-12" value="&lt;div&gt;Deploy to GKE&amp;nbsp;&lt;/div&gt;&lt;div&gt;CI/CD pipeline is&lt;/div&gt;&lt;div&gt;triggered&lt;/div&gt;" style="text;html=1;align=center;verticalAlign=middle;resizable=0;points=[];autosize=1;strokeColor=none;fillColor=none;" vertex="1" parent="1">
          <mxGeometry x="286.2" y="362.4" width="110" height="60" as="geometry" />
        </mxCell>
        <mxCell id="yGFEi1pNEFOO4x7r2IIJ-13" value="" style="fillColor=#ffffff;strokeColor=#dddddd;shadow=1;strokeWidth=1;rounded=1;absoluteArcSize=1;arcSize=2;" vertex="1" parent="1">
          <mxGeometry x="460" y="304.79999999999995" width="140" height="57.6" as="geometry" />
        </mxCell>
        <mxCell id="yGFEi1pNEFOO4x7r2IIJ-14" value="Kubernetes&#xa;Engine" style="editableCssRules=.*;html=1;fontColor=#999999;shape=image;verticalLabelPosition=middle;verticalAlign=middle;labelPosition=right;align=left;spacingLeft=20;part=1;points=[];imageAspect=0;image=data:image/svg+xml,PHN2ZyB4bWxucz0iaHR0cDovL3d3dy53My5vcmcvMjAwMC9zdmciIHhtbG5zOnY9Imh0dHBzOi8vdmVjdGEuaW8vbmFubyIgd2lkdGg9IjMyOS45MjU5OTcyMzE3OTM4IiBoZWlnaHQ9IjM3OC4yODQ5OTAzMTEyNzg4IiB2aWV3Qm94PSIwIDAgODcuMjkyOTk5MjY3NTc4MTIgMTAwLjA4Nzk5NzQzNjUyMzQ0Ij4mI3hhOzxzdHlsZSB0eXBlPSJ0ZXh0L2NzcyI+JiN4YTsJLnN0MHtmaWxsOiNhZWNiZmE7fSYjeGE7CS5zdDF7ZmlsbDojNjY5ZGY2O30mI3hhOwkuc3Qye2ZpbGw6IzQyODVmNDt9JiN4YTs8L3N0eWxlPiYjeGE7CTxwYXRoIGNsYXNzPSJzdDAiIGQ9Ik00My43NTEgMEwwIDI1LjQ2NXYyLjU4OCA0Ni45Mmw0My43NTIgMjUuMTE1IDQzLjU0MS0yNS4xMjFWMjUuNDczem0yLjQzOCAxMS44NTNsMzIuMTAzIDE4Ljc4MlY2OS43N0w0My43MzkgODkuNzA1IDkgNjkuNzYyVjMwLjY0MWwzMi4xOS0xOC43MzZ2MTQuMTU0TDI0LjUwMyAzNi4xNTNsMTkuMTcyIDExLjUwMiAxOC44ODYtMTEuNTU0LTE2LjM3Mi0xMC4wMjR6Ii8+JiN4YTsJPHBhdGggY2xhc3M9InN0MSIgZD0iTTIyLjAyNSA0MC40OTZsLjE2NiAxOS4xNDMtMTMuMjQ3IDcuMzN2Mi43NDJsMi42MzcgMS41MTQgMTIuNjQ4LTYuOTk5IDE2Ljk2MSAxMC42MDJWNTEuOTkzeiIvPiYjeGE7CTxwYXRoIGNsYXNzPSJzdDIiIGQ9Ik02NS4zNDQgNDAuMjZMNDYuMTg5IDUxLjk3OXYyMi44NDdsMTYuODk5LTEwLjU3NiAxMi41MzkgNi45NzQgMi42MDktMS41MDV2LTIuNzY1bC0xMi43ODQtNy4xMTJ6Ii8+JiN4YTs8L3N2Zz4=;" vertex="1" parent="yGFEi1pNEFOO4x7r2IIJ-13">
          <mxGeometry width="26" height="30" relative="1" as="geometry">
            <mxPoint x="17" y="15" as="offset" />
          </mxGeometry>
        </mxCell>
        <mxCell id="yGFEi1pNEFOO4x7r2IIJ-16" value="&lt;div&gt;GKE cluster&lt;/div&gt;&lt;div&gt;provisioned&amp;nbsp;&lt;/div&gt;&lt;div&gt;via Terraform&lt;/div&gt;" style="text;html=1;align=center;verticalAlign=middle;resizable=0;points=[];autosize=1;strokeColor=none;fillColor=none;" vertex="1" parent="1">
          <mxGeometry x="600" y="304.79999999999995" width="90" height="60" as="geometry" />
        </mxCell>
        <mxCell id="yGFEi1pNEFOO4x7r2IIJ-17" value="" style="aspect=fixed;sketch=0;html=1;dashed=0;whitespace=wrap;verticalLabelPosition=bottom;verticalAlign=top;fillColor=#2875E2;strokeColor=#ffffff;points=[[0.005,0.63,0],[0.1,0.2,0],[0.9,0.2,0],[0.5,0,0],[0.995,0.63,0],[0.72,0.99,0],[0.5,1,0],[0.28,0.99,0]];shape=mxgraph.kubernetes.icon2;prIcon=deploy" vertex="1" parent="1">
          <mxGeometry x="505" y="480" width="50" height="48" as="geometry" />
        </mxCell>
        <mxCell id="yGFEi1pNEFOO4x7r2IIJ-18" value="&lt;div&gt;ArgoCD&lt;/div&gt;&lt;div&gt;app-of-apps&lt;/div&gt;&lt;div&gt;and dependencies&lt;/div&gt;&lt;div&gt;are provisioned&lt;/div&gt;&lt;div&gt;via separate&amp;nbsp;&lt;/div&gt;&lt;div&gt;Terraform file&lt;/div&gt;" style="text;html=1;align=center;verticalAlign=middle;resizable=0;points=[];autosize=1;strokeColor=none;fillColor=none;" vertex="1" parent="1">
          <mxGeometry x="555" y="454" width="120" height="100" as="geometry" />
        </mxCell>
        <mxCell id="yGFEi1pNEFOO4x7r2IIJ-19" value="" style="points=[];aspect=fixed;html=1;align=center;shadow=0;dashed=0;fillColor=#FF6A00;strokeColor=none;shape=mxgraph.alibaba_cloud.dns_domain_name_system;" vertex="1" parent="1">
          <mxGeometry x="502.1" y="640" width="55.8" height="54.9" as="geometry" />
        </mxCell>
        <mxCell id="yGFEi1pNEFOO4x7r2IIJ-20" value="&lt;div&gt;DNS record is&amp;nbsp;&lt;/div&gt;&lt;div&gt;programmatically updated&amp;nbsp;&lt;/div&gt;&lt;div&gt;to the GKE reverse proxy&amp;nbsp;&lt;/div&gt;&lt;div&gt;external IP&lt;/div&gt;" style="text;html=1;align=center;verticalAlign=middle;resizable=0;points=[];autosize=1;strokeColor=none;fillColor=none;" vertex="1" parent="1">
          <mxGeometry x="345" y="632.45" width="160" height="70" as="geometry" />
        </mxCell>
        <mxCell id="yGFEi1pNEFOO4x7r2IIJ-22" value="" style="image;aspect=fixed;html=1;points=[];align=center;fontSize=12;image=img/lib/azure2/management_governance/Application_Insights.svg;" vertex="1" parent="1">
          <mxGeometry x="893" y="631.9" width="44" height="63" as="geometry" />
        </mxCell>
        <mxCell id="yGFEi1pNEFOO4x7r2IIJ-23" value="&lt;div&gt;Post-incident response&lt;/div&gt;&lt;div&gt;is performed. Engineer&amp;nbsp;&lt;/div&gt;&lt;div&gt;performs manual teardown&amp;nbsp;&lt;/div&gt;&lt;div&gt;of GKE cluster and&amp;nbsp;&lt;/div&gt;&lt;div&gt;points the DNS record&amp;nbsp;&lt;/div&gt;&lt;div&gt;back to on-prem servers&lt;/div&gt;&lt;div&gt;&lt;br&gt;&lt;/div&gt;" style="text;html=1;align=center;verticalAlign=middle;resizable=0;points=[];autosize=1;strokeColor=none;fillColor=none;" vertex="1" parent="1">
          <mxGeometry x="830" y="702.45" width="170" height="110" as="geometry" />
        </mxCell>
        <mxCell id="yGFEi1pNEFOO4x7r2IIJ-24" value="" style="html=1;verticalLabelPosition=bottom;align=center;labelBackgroundColor=#ffffff;verticalAlign=top;strokeWidth=2;strokeColor=#0080F0;shadow=0;dashed=0;shape=mxgraph.ios7.icons.mail;" vertex="1" parent="1">
          <mxGeometry x="690" y="649.6" width="60" height="35.7" as="geometry" />
        </mxCell>
        <mxCell id="yGFEi1pNEFOO4x7r2IIJ-25" value="&lt;div&gt;CI/CD pipeline&amp;nbsp;&lt;/div&gt;&lt;div&gt;completes and result&lt;/div&gt;&lt;div&gt;is emailed out&lt;/div&gt;" style="text;html=1;align=center;verticalAlign=middle;resizable=0;points=[];autosize=1;strokeColor=none;fillColor=none;" vertex="1" parent="1">
          <mxGeometry x="655" y="694.9" width="130" height="60" as="geometry" />
        </mxCell>
        <mxCell id="yGFEi1pNEFOO4x7r2IIJ-26" style="edgeStyle=orthogonalEdgeStyle;rounded=0;orthogonalLoop=1;jettySize=auto;html=1;entryX=0.5;entryY=0;entryDx=0;entryDy=0;entryPerimeter=0;" edge="1" parent="1" source="yGFEi1pNEFOO4x7r2IIJ-13" target="yGFEi1pNEFOO4x7r2IIJ-17">
          <mxGeometry relative="1" as="geometry" />
        </mxCell>
        <mxCell id="yGFEi1pNEFOO4x7r2IIJ-27" style="edgeStyle=orthogonalEdgeStyle;rounded=0;orthogonalLoop=1;jettySize=auto;html=1;entryX=0.5;entryY=0;entryDx=0;entryDy=0;entryPerimeter=0;" edge="1" parent="1" source="yGFEi1pNEFOO4x7r2IIJ-17" target="yGFEi1pNEFOO4x7r2IIJ-19">
          <mxGeometry relative="1" as="geometry" />
        </mxCell>
        <mxCell id="yGFEi1pNEFOO4x7r2IIJ-29" style="edgeStyle=orthogonalEdgeStyle;rounded=0;orthogonalLoop=1;jettySize=auto;html=1;entryX=-0.05;entryY=0.515;entryDx=0;entryDy=0;entryPerimeter=0;" edge="1" parent="1" source="yGFEi1pNEFOO4x7r2IIJ-19" target="yGFEi1pNEFOO4x7r2IIJ-24">
          <mxGeometry relative="1" as="geometry" />
        </mxCell>
        <mxCell id="yGFEi1pNEFOO4x7r2IIJ-30" style="edgeStyle=orthogonalEdgeStyle;rounded=0;orthogonalLoop=1;jettySize=auto;html=1;entryX=0.045;entryY=0.557;entryDx=0;entryDy=0;entryPerimeter=0;" edge="1" parent="1" source="yGFEi1pNEFOO4x7r2IIJ-24" target="yGFEi1pNEFOO4x7r2IIJ-22">
          <mxGeometry relative="1" as="geometry" />
        </mxCell>
      </root>
    </mxGraphModel>
  </diagram>
</mxfile>
